<svg width="24" height="24" viewBox="0 0 24 24" fill="none" xmlns="http://www.w3.org/2000/svg">
<path d="M4.53491 11.9387C4.53491 11.5748 4.80531 11.2741 5.15613 11.2265L5.25366 11.2199L19.6287 11.2199C20.0256 11.2199 20.3474 11.5417 20.3474 11.9387C20.3474 12.3026 20.077 12.6033 19.7262 12.6509L19.6287 12.6574L5.25366 12.6574C4.85671 12.6574 4.53491 12.3357 4.53491 11.9387Z" fill="white"/>
<path d="M13.3238 6.67464C13.0425 6.39456 13.0415 5.93947 13.3216 5.65818C13.5762 5.40246 13.9755 5.3784 14.2573 5.58657L14.3381 5.65599L20.136 11.429C20.3925 11.6844 20.4158 12.0851 20.206 12.3669L20.136 12.4476L14.3381 18.2216C14.0568 18.5017 13.6018 18.5007 13.3216 18.2195C13.067 17.9638 13.0446 17.5644 13.254 17.2835L13.3238 17.203L18.6099 11.938L13.3238 6.67464Z" fill="white"/>
</svg>
