<svg width="527" height="473" viewBox="0 0 527 473" fill="none" xmlns="http://www.w3.org/2000/svg">
<path d="M47.8129 100.884C19.9259 99.0093 -1.1651 74.8718 0.709655 47.2192C2.81876 19.3322 26.7219 -1.75885 54.6089 0.115905C82.2616 2.22501 103.353 26.1282 101.478 54.0152C99.6031 81.6678 75.4656 102.759 47.8129 100.884Z" fill="url(#paint0_radial_118120_24)"/>
<g filter="url(#filter0_b_118120_24)">
<rect width="178" height="284" rx="20" transform="matrix(0.866025 0.5 -0.866025 0.5 290.953 222)" fill="url(#paint1_linear_118120_24)"/>
<rect x="-2.98023e-08" y="0.5" width="177" height="283" rx="19.5" transform="matrix(0.866025 0.5 -0.866025 0.5 291.386 222.25)" stroke="url(#paint2_linear_118120_24)"/>
</g>
<g filter="url(#filter1_d_118120_24)">
<rect x="-2.05613e-08" y="0.344961" width="177.31" height="283.558" rx="13.4535" transform="matrix(0.866025 0.5 -0.866025 0.5 309.467 140.172)" fill="url(#paint3_linear_118120_24)" stroke="url(#paint4_linear_118120_24)" stroke-width="0.689923"/>
<g opacity="0.9">
<rect opacity="0.75" x="4.47035e-08" y="-0.25" width="19.2897" height="19.2897" rx="9.64486" transform="matrix(-0.866025 -0.5 0.866026 -0.5 218.156 356.496)" stroke="url(#paint5_linear_118120_24)" stroke-width="0.5"/>
<rect opacity="0.7" x="4.47035e-08" y="-0.25" width="19.2897" height="19.2897" rx="9.64486" transform="matrix(-0.866025 -0.5 0.866026 -0.5 207.809 350.522)" stroke="url(#paint6_linear_118120_24)" stroke-width="0.5"/>
</g>
<g filter="url(#filter2_d_118120_24)">
<path d="M109.668 272.987L109.001 273.372L106.886 272.151L105.416 272.999L107.065 273.952L106.398 274.337L104.749 273.384L102.57 274.643L101.752 274.171L106.735 271.294L109.668 272.987ZM111.3 274.691L109.837 275.536L111.558 276.529L110.891 276.914L109.17 275.921L107.643 276.802L109.579 277.92L108.912 278.305L106.159 276.715L111.149 273.834L113.903 275.424L113.236 275.809L111.3 274.691ZM112.113 279.391L113.798 280.364L113.138 280.745L110.636 279.3L115.619 276.423L116.437 276.895L112.113 279.391ZM120.339 279.148L115.356 282.025L114.539 281.553L119.522 278.676L120.339 279.148ZM124.13 283.051C123.877 283.197 123.578 283.3 123.234 283.361C122.89 283.422 122.514 283.418 122.108 283.349C121.706 283.277 121.3 283.122 120.889 282.885L119.986 282.363L117.964 283.531L117.146 283.059L122.129 280.182L123.85 281.175C124.233 281.396 124.488 281.621 124.617 281.85C124.756 282.079 124.778 282.296 124.682 282.5C124.591 282.707 124.407 282.89 124.13 283.051ZM121.556 282.5C121.867 282.679 122.168 282.773 122.459 282.781C122.756 282.787 123.033 282.715 123.291 282.566C123.836 282.252 123.8 281.916 123.183 281.56L122.28 281.039L120.653 281.978L121.556 282.5ZM127.268 283.91L125.806 284.755L127.526 285.748L126.86 286.133L125.139 285.14L123.612 286.022L125.548 287.139L124.881 287.524L122.128 285.935L127.118 283.054L129.871 284.643L129.204 285.028L127.268 283.91ZM136.34 290.042C136.459 289.824 136.466 289.613 136.361 289.408C136.261 289.201 136.06 289.011 135.759 288.837C135.429 288.647 135.061 288.52 134.655 288.456C134.248 288.393 133.835 288.397 133.414 288.469C132.998 288.543 132.611 288.684 132.253 288.891C131.894 289.098 131.648 289.323 131.514 289.566C131.39 289.809 131.383 290.047 131.493 290.282C131.603 290.516 131.823 290.729 132.152 290.919C132.597 291.176 133.082 291.313 133.608 291.329C134.134 291.346 134.64 291.249 135.128 291.039L133.256 289.959L133.909 289.582L136.655 291.168L136.017 291.536C135.577 291.729 135.082 291.855 134.533 291.913C133.988 291.974 133.438 291.957 132.884 291.863C132.339 291.769 131.849 291.597 131.414 291.346C130.945 291.075 130.625 290.766 130.453 290.419C130.286 290.068 130.281 289.715 130.439 289.359C130.601 289.006 130.926 288.688 131.414 288.407C131.901 288.125 132.451 287.938 133.063 287.844C133.68 287.753 134.289 287.757 134.891 287.856C135.503 287.955 136.041 288.139 136.504 288.407C137.035 288.713 137.374 289.061 137.523 289.45C137.68 289.839 137.613 290.225 137.322 290.609L136.34 290.042ZM135.726 293.844C135.578 293.758 135.504 293.657 135.504 293.542C135.504 293.426 135.578 293.325 135.726 293.239C135.874 293.154 136.049 293.111 136.249 293.111C136.45 293.111 136.625 293.154 136.773 293.239C136.916 293.322 136.988 293.421 136.988 293.537C136.988 293.653 136.914 293.754 136.766 293.84C136.618 293.925 136.443 293.968 136.242 293.968C136.042 293.968 135.869 293.927 135.726 293.844Z" fill="white"/>
</g>
<g filter="url(#filter3_d_118120_24)">
<path d="M92.2753 279.415C91.5982 279.806 91.1819 280.175 91.0266 280.522C90.8712 280.869 91.0684 281.202 91.6181 281.519C92.1678 281.836 92.7434 281.95 93.3448 281.861C93.9503 281.773 94.5916 281.534 95.2688 281.143C95.9379 280.757 96.3482 280.389 96.4996 280.039C96.6549 279.692 96.4578 279.36 95.9081 279.042C95.3584 278.725 94.7828 278.611 94.1813 278.701C93.5838 278.788 92.9485 279.026 92.2753 279.415ZM94.731 280.833C94.3845 281.033 94.0678 281.186 93.781 281.291C93.5022 281.397 93.2233 281.45 92.9445 281.45C92.6657 281.45 92.3948 281.374 92.1319 281.222C91.873 281.073 91.7436 280.918 91.7436 280.757C91.7436 280.596 91.8332 280.434 92.0124 280.27C92.1996 280.107 92.4665 279.925 92.8131 279.725C93.1556 279.527 93.4663 279.376 93.7452 279.27C94.028 279.166 94.3068 279.116 94.5816 279.118C94.8605 279.118 95.1293 279.193 95.3882 279.342C95.6511 279.494 95.7826 279.65 95.7826 279.811C95.7866 279.97 95.697 280.13 95.5137 280.291C95.3345 280.454 95.0736 280.635 94.731 280.833ZM99.2795 282.355C99.4985 282.191 99.6061 282.03 99.6021 281.872C99.6061 281.713 99.4866 281.564 99.2436 281.423C98.905 281.228 98.5167 281.155 98.0785 281.206C97.6443 281.259 97.1424 281.45 96.5728 281.779L96.3577 281.91C96.6565 281.806 96.9831 281.776 97.3376 281.82C97.6961 281.861 98.0207 281.966 98.3115 282.134C98.7298 282.375 98.9309 282.636 98.915 282.917C98.903 283.2 98.672 283.471 98.2219 283.731C97.959 283.883 97.6682 283.991 97.3496 284.055C97.0349 284.117 96.7063 284.123 96.3637 284.073C96.0291 284.022 95.7045 283.906 95.3898 283.724C94.7883 283.377 94.5633 283.029 94.7146 282.679C94.87 282.332 95.2723 281.971 95.9216 281.596C96.6704 281.163 97.3516 280.908 97.965 280.83C98.5864 280.752 99.1699 280.87 99.7156 281.185C100.118 281.418 100.313 281.661 100.301 281.917C100.293 282.174 100.126 282.42 99.7993 282.655L99.2795 282.355ZM95.8618 282.265C95.571 282.433 95.4097 282.623 95.3778 282.834C95.3539 283.046 95.5113 283.249 95.8499 283.445C96.1287 283.606 96.4334 283.687 96.764 283.69C97.0986 283.69 97.4153 283.603 97.714 283.431C98.0367 283.245 98.198 283.055 98.198 282.862C98.202 282.666 98.0566 282.483 97.7618 282.313C97.5945 282.217 97.4013 282.144 97.1823 282.096C96.9632 282.048 96.7361 282.036 96.5011 282.061C96.2701 282.084 96.057 282.152 95.8618 282.265ZM105.016 282.734L96.7287 285.629L96.2029 285.325L104.484 282.427L105.016 282.734ZM100.081 285.901C101.212 286.03 102.204 286.083 103.056 286.06C103.913 286.035 104.534 285.911 104.921 285.688C105.16 285.55 105.289 285.403 105.309 285.249C105.337 285.095 105.215 284.94 104.945 284.784C104.666 284.623 104.365 284.553 104.042 284.573C103.724 284.592 103.401 284.686 103.074 284.856L102.537 284.546C103.035 284.29 103.54 284.166 104.054 284.173C104.572 284.178 105.038 284.3 105.452 284.539C105.847 284.766 106.054 285.008 106.074 285.263C106.094 285.518 105.91 285.758 105.524 285.981C105.205 286.165 104.777 286.292 104.239 286.364C103.71 286.435 103.148 286.463 102.555 286.446C101.969 286.43 101.415 286.384 100.894 286.308L103.033 287.543L102.584 287.802L99.6866 286.129L100.081 285.901ZM105.275 286.92C104.598 287.311 104.182 287.68 104.027 288.028C103.871 288.375 104.068 288.707 104.618 289.025C105.168 289.342 105.743 289.456 106.345 289.366C106.95 289.279 107.592 289.04 108.269 288.649C108.938 288.262 109.348 287.894 109.5 287.545C109.655 287.197 109.458 286.865 108.908 286.548C108.358 286.23 107.783 286.117 107.181 286.206C106.584 286.294 105.949 286.532 105.275 286.92ZM107.731 288.338C107.385 288.538 107.068 288.691 106.781 288.797C106.502 288.903 106.223 288.956 105.945 288.956C105.666 288.956 105.395 288.88 105.132 288.728C104.873 288.578 104.744 288.423 104.744 288.262C104.744 288.101 104.833 287.939 105.013 287.776C105.2 287.613 105.467 287.431 105.813 287.231C106.156 287.033 106.466 286.881 106.745 286.775C107.028 286.672 107.307 286.621 107.582 286.624C107.861 286.624 108.129 286.698 108.388 286.848C108.651 287 108.783 287.156 108.783 287.317C108.787 287.476 108.697 287.636 108.514 287.797C108.335 287.96 108.074 288.14 107.731 288.338ZM107.141 289.978C108.272 290.106 109.264 290.159 110.117 290.136C110.973 290.111 111.594 289.987 111.981 289.764C112.22 289.626 112.349 289.48 112.369 289.326C112.397 289.172 112.276 289.016 112.005 288.86C111.726 288.699 111.425 288.629 111.102 288.649C110.784 288.668 110.461 288.762 110.135 288.932L109.597 288.622C110.095 288.367 110.601 288.242 111.114 288.249C111.632 288.254 112.098 288.376 112.513 288.615C112.907 288.843 113.114 289.084 113.134 289.339C113.154 289.595 112.971 289.834 112.584 290.057C112.266 290.241 111.837 290.369 111.3 290.44C110.77 290.511 110.208 290.539 109.615 290.523C109.029 290.507 108.476 290.461 107.954 290.385L110.093 291.62L109.645 291.878L106.747 290.205L107.141 289.978ZM111.015 291.58L111.469 291.317L116.452 290.938L117.038 291.276L114.236 292.894L114.857 293.253L114.385 293.525L113.764 293.166L112.796 293.725L112.246 293.408L113.214 292.849L111.015 291.58ZM115.861 291.362L112.061 291.638L113.722 292.597L115.861 291.362Z" fill="white" fill-opacity="0.7" shape-rendering="crispEdges"/>
</g>
<rect x="-2.98023e-08" y="0.5" width="23.8605" height="18.0421" rx="1.5" transform="matrix(0.866025 0.5 -0.866025 0.5 210.633 273.822)" stroke="white"/>
<g style="mix-blend-mode:overlay">
<path d="M198.996 293.599C197.799 293.439 195.335 292.763 195.064 291.333M197.371 296.164C195.513 295.889 191.56 294.726 190.612 292.269M196.153 298.566C193.678 298.174 188.308 296.529 186.628 293.078M194.42 300.91C191.405 300.499 184.812 298.557 182.56 294.076" stroke="white" stroke-width="1.37985" stroke-linecap="round" stroke-linejoin="round"/>
</g>
</g>
<g filter="url(#filter4_d_118120_24)">
<g filter="url(#filter5_b_118120_24)">
<rect width="178" height="284.248" rx="13.7985" transform="matrix(0.866025 0.5 -0.866025 0.5 283.76 48)" fill="url(#paint7_linear_118120_24)"/>
<rect x="-2.05613e-08" y="0.344961" width="177.31" height="283.558" rx="13.4535" transform="matrix(0.866025 0.5 -0.866025 0.5 284.059 48.1725)" stroke="url(#paint8_linear_118120_24)" stroke-width="0.689923"/>
</g>
<g filter="url(#filter6_b_118120_24)">
<path d="M127.217 138.38L281.37 227.38L215.646 265.326C204.379 271.83 198.746 275.083 191.746 275.083C184.746 275.083 179.113 271.83 167.847 265.326L61.4933 203.922C50.227 197.418 44.5938 194.166 44.5938 190.124C44.5938 186.083 50.227 182.83 61.4933 176.326L127.217 138.38Z" fill="url(#paint9_linear_118120_24)"/>
</g>
<path d="M358.743 121.396L351.15 125.78L349.623 124.898L352.925 122.992L349.677 121.117L346.375 123.023L344.859 122.147L352.452 117.764L353.968 118.639L350.892 120.415L354.14 122.29L357.216 120.514L358.743 121.396ZM361.312 124.68C361.893 125.015 362.291 125.386 362.506 125.792C362.729 126.201 362.739 126.617 362.539 127.04C362.345 127.458 361.936 127.847 361.312 128.207C360.689 128.567 360.015 128.803 359.291 128.915C358.566 129.027 357.846 129.02 357.129 128.896C356.426 128.772 355.784 128.542 355.204 128.207C354.623 127.872 354.221 127.499 353.999 127.089C353.791 126.679 353.784 126.266 353.978 125.847C354.171 125.429 354.58 125.04 355.204 124.68C355.827 124.32 356.501 124.084 357.226 123.972C357.957 123.856 358.674 123.86 359.377 123.985C360.086 124.113 360.732 124.345 361.312 124.68ZM360 125.438C359.577 125.193 359.068 125.073 358.473 125.077C357.885 125.077 357.308 125.241 356.742 125.568C356.175 125.895 355.888 126.23 355.881 126.574C355.881 126.913 356.093 127.205 356.516 127.449C356.939 127.694 357.444 127.816 358.032 127.816C358.627 127.812 359.208 127.646 359.775 127.319C360.341 126.992 360.624 126.659 360.624 126.319C360.631 125.976 360.423 125.682 360 125.438ZM368.192 128.652C368.773 128.987 369.17 129.358 369.386 129.763C369.608 130.173 369.619 130.589 369.418 131.011C369.224 131.429 368.816 131.819 368.192 132.179C367.568 132.539 366.894 132.775 366.17 132.887C365.446 132.998 364.725 132.992 364.008 132.868C363.305 132.744 362.664 132.514 362.083 132.179C361.502 131.843 361.101 131.471 360.878 131.061C360.671 130.651 360.663 130.237 360.857 129.819C361.051 129.401 361.459 129.012 362.083 128.652C362.707 128.292 363.381 128.056 364.105 127.944C364.836 127.828 365.553 127.832 366.256 127.956C366.966 128.085 367.611 128.317 368.192 128.652ZM366.88 129.409C366.457 129.165 365.948 129.045 365.352 129.049C364.765 129.049 364.187 129.213 363.621 129.54C363.055 129.867 362.768 130.202 362.761 130.546C362.761 130.885 362.972 131.177 363.395 131.421C363.818 131.665 364.324 131.788 364.912 131.788C365.507 131.783 366.087 131.618 366.654 131.291C367.22 130.964 367.503 130.631 367.503 130.291C367.511 129.948 367.303 129.654 366.88 129.409Z" fill="white"/>
<path d="M374.437 134.704C374.802 135.022 374.949 135.36 374.877 135.716C374.82 136.072 374.562 136.382 374.103 136.647C373.465 137.016 372.744 137.183 371.941 137.15C371.153 137.117 370.353 136.867 369.543 136.399L366.284 134.517L373.877 130.134L377.071 131.978C377.839 132.421 378.258 132.858 378.33 133.288C378.409 133.723 378.143 134.116 377.534 134.468C377.061 134.741 376.548 134.892 375.996 134.921C375.451 134.954 374.931 134.882 374.437 134.704ZM372.21 132.847L373.576 133.636C373.956 133.855 374.325 133.973 374.684 133.99C375.057 134.006 375.401 133.923 375.716 133.741C376.032 133.559 376.179 133.363 376.157 133.151C376.136 132.94 375.924 132.719 375.523 132.487L374.178 131.711L372.21 132.847ZM370.479 135.511C370.88 135.743 371.275 135.871 371.662 135.896C372.056 135.917 372.422 135.83 372.759 135.635C373.096 135.441 373.243 135.227 373.2 134.996C373.171 134.764 372.956 134.532 372.554 134.3L371.124 133.474L369.038 134.679L370.479 135.511ZM381.468 136.317C381.97 136.607 382.282 136.923 382.404 137.267C382.525 137.61 382.461 137.942 382.21 138.26L383.447 137.546L384.952 138.416L378.994 141.856L377.489 140.986L378.736 140.266C378.184 140.411 377.607 140.45 377.005 140.384C376.41 140.314 375.861 140.133 375.359 139.844C374.857 139.554 374.527 139.223 374.37 138.85C374.212 138.478 374.248 138.093 374.477 137.695C374.721 137.298 375.155 136.919 375.779 136.559C376.402 136.199 377.055 135.95 377.736 135.814C378.431 135.677 379.102 135.655 379.747 135.746C380.392 135.837 380.966 136.027 381.468 136.317ZM380.618 137.354C380.145 137.081 379.611 136.95 379.016 136.963C378.421 136.975 377.854 137.136 377.317 137.447C376.779 137.757 376.499 138.084 376.478 138.428C376.463 138.767 376.693 139.074 377.166 139.347C377.625 139.612 378.155 139.74 378.758 139.732C379.374 139.724 379.944 139.568 380.468 139.266C380.998 138.96 381.267 138.631 381.274 138.279C381.296 137.927 381.077 137.619 380.618 137.354ZM389.962 141.208C390.65 141.606 390.973 142.053 390.93 142.55C390.887 143.046 390.457 143.531 389.639 144.003L386.176 146.002L384.671 145.133L387.961 143.233C388.435 142.959 388.678 142.678 388.693 142.388C388.714 142.094 388.514 141.825 388.091 141.581C387.66 141.333 387.176 141.215 386.639 141.227C386.101 141.239 385.57 141.397 385.047 141.699L381.885 143.524L380.369 142.649L386.327 139.209L387.843 140.085L386.649 140.774C387.209 140.633 387.779 140.602 388.359 140.681C388.955 140.759 389.489 140.935 389.962 141.208ZM390.995 148.784L391.63 146.145L389.027 147.648L387.51 146.772L395.469 142.177L396.985 143.053L392.511 145.636L396.942 145.338L398.738 146.375L393.264 146.642L392.845 149.852L390.995 148.784Z" fill="#5CE1E6"/>
<path d="M347.096 106.264C345.205 105.173 342.796 104.429 340.173 104.128C337.551 103.827 334.832 103.982 332.362 104.572C329.892 105.163 327.78 106.164 326.295 107.447C324.809 108.731 324.016 110.24 324.016 111.784C324.016 113.328 324.809 114.837 326.295 116.12C327.78 117.404 329.892 118.404 332.362 118.995C334.832 119.586 337.551 119.74 340.173 119.439C342.796 119.138 345.205 118.395 347.096 117.303L342.316 114.543C341.37 115.089 340.166 115.461 338.854 115.612C337.543 115.762 336.184 115.685 334.949 115.389C333.714 115.094 332.658 114.594 331.915 113.952C331.172 113.31 330.776 112.556 330.776 111.784C330.776 111.012 331.172 110.257 331.915 109.615C332.658 108.974 333.714 108.473 334.949 108.178C336.184 107.883 337.543 107.805 338.854 107.956C340.166 108.107 341.37 108.478 342.316 109.024L347.096 106.264Z" fill="white"/>
<path d="M347.096 106.264C345.84 105.54 344.35 104.965 342.709 104.572C341.069 104.18 339.311 103.978 337.536 103.978C335.76 103.978 334.002 104.18 332.362 104.572C330.722 104.965 329.231 105.54 327.976 106.264L332.756 109.024C333.383 108.662 334.129 108.374 334.949 108.178C335.769 107.982 336.648 107.881 337.536 107.881C338.423 107.881 339.302 107.982 340.123 108.178C340.943 108.374 341.688 108.662 342.316 109.024L347.096 106.264Z" fill="#5CE1E6"/>
<circle cx="3.44961" cy="3.44961" r="3.44961" transform="matrix(0.866025 0.5 -0.866025 0.5 337.536 108.334)" fill="#5CE1E6"/>
<path d="M340.523 113.509C340.915 113.282 341.227 113.013 341.439 112.717C341.651 112.421 341.761 112.104 341.761 111.784C341.761 111.463 341.651 111.146 341.439 110.85C341.227 110.554 340.915 110.285 340.523 110.059C340.131 109.832 339.665 109.653 339.153 109.53C338.64 109.408 338.091 109.344 337.536 109.344C336.981 109.344 336.431 109.408 335.919 109.53C335.406 109.653 334.941 109.832 334.548 110.059L337.536 111.784L340.523 113.509Z" fill="white"/>
<g opacity="0.9">
<rect opacity="0.75" x="4.47035e-08" y="-0.25" width="19.2897" height="19.2897" rx="9.64486" transform="matrix(-0.866025 -0.5 0.866026 -0.5 192.747 264.496)" stroke="url(#paint10_linear_118120_24)" stroke-width="0.5"/>
<rect opacity="0.7" x="4.47035e-08" y="-0.25" width="19.2897" height="19.2897" rx="9.64486" transform="matrix(-0.866025 -0.5 0.866026 -0.5 182.401 258.522)" stroke="url(#paint11_linear_118120_24)" stroke-width="0.5"/>
</g>
<g filter="url(#filter7_d_118120_24)">
<path d="M289.734 64.0088C290.975 64.7249 291.735 65.4038 292.014 66.0454C292.294 66.6953 291.921 67.3163 290.896 67.9082C289.871 68.5002 288.799 68.7134 287.68 68.5478C286.562 68.3905 285.382 67.9538 284.142 67.2376C282.887 66.5132 282.116 65.824 281.83 65.1699C281.543 64.5242 281.912 63.9053 282.937 63.3133C283.963 62.7214 285.038 62.5061 286.164 62.6676C287.289 62.8373 288.48 63.2844 289.734 64.0088ZM285.346 66.5422C285.927 66.8775 286.458 67.1383 286.938 67.3246C287.411 67.515 287.888 67.6164 288.368 67.6288C288.856 67.6454 289.326 67.5233 289.777 67.2625C290.229 67.0017 290.441 66.7305 290.412 66.449C290.39 66.1717 290.218 65.8943 289.896 65.617C289.566 65.3438 289.111 65.0395 288.53 64.7042C287.928 64.3565 287.386 64.0854 286.906 63.8908C286.425 63.6963 285.945 63.5928 285.465 63.5803C284.977 63.5721 284.508 63.6983 284.056 63.9591C283.604 64.2199 283.389 64.489 283.411 64.7663C283.425 65.0478 283.601 65.3272 283.937 65.6046C284.274 65.8819 284.744 66.1945 285.346 66.5422ZM281.769 68.6076C283.009 69.3237 283.769 70.0026 284.049 70.6442C284.329 71.2941 283.956 71.915 282.931 72.507C281.905 73.0989 280.833 73.3121 279.715 73.1466C278.596 72.9893 277.417 72.5525 276.177 71.8364C274.922 71.112 274.151 70.4227 273.864 69.7687C273.577 69.1229 273.947 68.5041 274.972 67.9121C275.997 67.3202 277.073 67.1049 278.198 67.2663C279.324 67.4361 280.514 67.8831 281.769 68.6076ZM277.381 71.1409C277.962 71.4763 278.492 71.737 278.973 71.9233C279.446 72.1137 279.923 72.2152 280.403 72.2276C280.891 72.2441 281.36 72.122 281.812 71.8612C282.264 71.6004 282.475 71.3293 282.447 71.0478C282.425 70.7705 282.253 70.4931 281.93 70.2158C281.601 69.9426 281.145 69.6383 280.565 69.303C279.962 68.9553 279.421 68.6841 278.941 68.4896C278.46 68.295 277.98 68.1915 277.499 68.1791C277.012 68.1708 276.542 68.2971 276.091 68.5579C275.639 68.8187 275.424 69.0877 275.445 69.3651C275.46 69.6466 275.635 69.926 275.972 70.2033C276.309 70.4807 276.779 70.7932 277.381 71.1409ZM273.804 73.2063C275.044 73.9225 275.804 74.6013 276.084 75.243C276.363 75.8929 275.991 76.5138 274.965 77.1058C273.94 77.6977 272.868 77.9109 271.75 77.7453C270.631 77.588 269.452 77.1513 268.211 76.4352C266.957 75.7107 266.186 75.0215 265.899 74.3675C265.612 73.7217 265.981 73.1028 267.007 72.5109C268.032 71.9189 269.107 71.7037 270.233 71.8651C271.359 72.0348 272.549 72.4819 273.804 73.2063ZM269.416 75.7397C269.997 76.075 270.527 76.3358 271.008 76.5221C271.481 76.7125 271.958 76.8139 272.438 76.8263C272.925 76.8429 273.395 76.7208 273.847 76.46C274.298 76.1992 274.51 75.9281 274.481 75.6466C274.46 75.3692 274.288 75.0919 273.965 74.8145C273.635 74.5413 273.18 74.2371 272.599 73.9018C271.997 73.554 271.456 73.2829 270.975 73.0883C270.495 72.8938 270.014 72.7903 269.534 72.7779C269.047 72.7696 268.577 72.8959 268.125 73.1566C267.674 73.4174 267.458 73.6865 267.48 73.9639C267.494 74.2453 267.67 74.5248 268.007 74.8021C268.344 75.0795 268.814 75.392 269.416 75.7397ZM265.838 77.8051C267.079 78.5212 267.839 79.2001 268.118 79.8417C268.398 80.4916 268.025 81.1126 267 81.7045C265.975 82.2965 264.903 82.5097 263.784 82.3441C262.666 82.1868 261.486 81.7501 260.246 81.0339C258.991 80.3095 258.22 79.6203 257.934 78.9662C257.647 78.3205 258.016 77.7016 259.041 77.1096C260.067 76.5177 261.142 76.3024 262.268 76.4639C263.394 76.6336 264.584 77.0807 265.838 77.8051ZM261.45 80.3385C262.031 80.6738 262.562 80.9346 263.042 81.1209C263.515 81.3113 263.992 81.4127 264.473 81.4251C264.96 81.4417 265.43 81.3195 265.881 81.0588C266.333 80.798 266.545 80.5268 266.516 80.2453C266.495 79.968 266.322 79.6906 266 79.4133C265.67 79.1401 265.215 78.8358 264.634 78.5005C264.032 78.1528 263.49 77.8817 263.01 77.6871C262.53 77.4925 262.049 77.3891 261.569 77.3766C261.081 77.3684 260.612 77.4946 260.16 77.7554C259.708 78.0162 259.493 78.2853 259.515 78.5626C259.529 78.8441 259.705 79.1235 260.042 79.4009C260.379 79.6782 260.848 79.9908 261.45 80.3385ZM254.004 84.6377C255.244 85.3539 256.004 86.0328 256.284 86.6744C256.564 87.3243 256.191 87.9452 255.165 88.5372C254.14 89.1291 253.068 89.3423 251.95 89.1767C250.831 89.0194 249.652 88.5827 248.411 87.8666C247.157 87.1422 246.386 86.4529 246.099 85.7989C245.812 85.1531 246.182 84.5343 247.207 83.9423C248.232 83.3503 249.308 83.1351 250.433 83.2965C251.559 83.4663 252.749 83.9133 254.004 84.6377ZM249.616 87.1711C250.197 87.5064 250.727 87.7672 251.208 87.9535C251.681 88.1439 252.158 88.2453 252.638 88.2578C253.126 88.2743 253.595 88.1522 254.047 87.8914C254.499 87.6306 254.71 87.3595 254.682 87.078C254.66 86.8006 254.488 86.5233 254.165 86.246C253.835 85.9727 253.38 85.6685 252.799 85.3332C252.197 84.9855 251.656 84.7143 251.175 84.5198C250.695 84.3252 250.215 84.2217 249.734 84.2093C249.247 84.201 248.777 84.3273 248.325 84.5881C247.874 84.8489 247.659 85.1179 247.68 85.3953C247.694 85.6768 247.87 85.9562 248.207 86.2335C248.544 86.5109 249.014 86.8234 249.616 87.1711ZM246.039 89.2365C247.279 89.9526 248.039 90.6315 248.319 91.2732C248.598 91.9231 248.225 92.544 247.2 93.1359C246.175 93.7279 245.103 93.9411 243.984 93.7755C242.866 93.6182 241.687 93.1815 240.446 92.4653C239.191 91.7409 238.421 91.0517 238.134 90.3976C237.847 89.7519 238.216 89.133 239.242 88.5411C240.267 87.9491 241.342 87.7339 242.468 87.8953C243.594 88.065 244.784 88.5121 246.039 89.2365ZM241.651 91.7699C242.231 92.1052 242.762 92.366 243.242 92.5523C243.716 92.7427 244.192 92.8441 244.673 92.8565C245.16 92.8731 245.63 92.751 246.082 92.4902C246.533 92.2294 246.745 91.9583 246.716 91.6768C246.695 91.3994 246.523 91.1221 246.2 90.8447C245.87 90.5715 245.415 90.2673 244.834 89.9319C244.232 89.5842 243.691 89.3131 243.21 89.1185C242.73 88.924 242.249 88.8205 241.769 88.8081C241.281 88.7998 240.812 88.926 240.36 89.1868C239.908 89.4476 239.693 89.7167 239.715 89.994C239.729 90.2755 239.905 90.5549 240.242 90.8323C240.579 91.1096 241.048 91.4222 241.651 91.7699ZM238.073 93.8353C239.314 94.5514 240.074 95.2303 240.353 95.8719C240.633 96.5218 240.26 97.1428 239.235 97.7347C238.21 98.3267 237.138 98.5399 236.019 98.3743C234.901 98.217 233.721 97.7803 232.481 97.0641C231.226 96.3397 230.455 95.6505 230.169 94.9964C229.882 94.3506 230.251 93.7318 231.276 93.1398C232.302 92.5479 233.377 92.3326 234.503 92.4941C235.628 92.6638 236.819 93.1109 238.073 93.8353ZM233.685 96.3687C234.266 96.704 234.797 96.9648 235.277 97.151C235.75 97.3415 236.227 97.4429 236.708 97.4553C237.195 97.4719 237.665 97.3497 238.116 97.0889C238.568 96.8282 238.78 96.557 238.751 96.2755C238.729 95.9982 238.557 95.7208 238.235 95.4435C237.905 95.1703 237.45 94.866 236.869 94.5307C236.267 94.183 235.725 93.9119 235.245 93.7173C234.764 93.5227 234.284 93.4193 233.804 93.4068C233.316 93.3986 232.847 93.5248 232.395 93.7856C231.943 94.0464 231.728 94.3155 231.75 94.5928C231.764 94.8743 231.94 95.1537 232.277 95.4311C232.613 95.7084 233.083 96.0209 233.685 96.3687ZM230.108 98.434C231.348 99.1502 232.108 99.8291 232.388 100.471C232.668 101.121 232.295 101.742 231.27 102.333C230.244 102.925 229.172 103.139 228.054 102.973C226.935 102.816 225.756 102.379 224.516 101.663C223.261 100.938 222.49 100.249 222.203 99.5952C221.916 98.9494 222.286 98.3306 223.311 97.7386C224.336 97.1466 225.412 96.9314 226.537 97.0928C227.663 97.2625 228.853 97.7096 230.108 98.434ZM225.72 100.967C226.301 101.303 226.831 101.564 227.312 101.75C227.785 101.94 228.262 102.042 228.742 102.054C229.23 102.071 229.699 101.949 230.151 101.688C230.603 101.427 230.814 101.156 230.786 100.874C230.764 100.597 230.592 100.32 230.269 100.042C229.94 99.769 229.484 99.4648 228.904 99.1295C228.301 98.7818 227.76 98.5106 227.28 98.3161C226.799 98.1215 226.319 98.018 225.838 98.0056C225.351 97.9973 224.881 98.1236 224.43 98.3844C223.978 98.6452 223.763 98.9142 223.784 99.1916C223.799 99.4731 223.974 99.7525 224.311 100.03C224.648 100.307 225.118 100.62 225.72 100.967ZM218.274 105.267C219.514 105.983 220.274 106.662 220.554 107.303C220.833 107.953 220.46 108.574 219.435 109.166C218.41 109.758 217.338 109.971 216.219 109.806C215.101 109.648 213.921 109.212 212.681 108.496C211.426 107.771 210.656 107.082 210.369 106.428C210.082 105.782 210.451 105.163 211.477 104.571C212.502 103.979 213.577 103.764 214.703 103.925C215.829 104.095 217.019 104.542 218.274 105.267ZM213.886 107.8C214.466 108.135 214.997 108.396 215.477 108.582C215.951 108.773 216.427 108.874 216.908 108.887C217.395 108.903 217.865 108.781 218.317 108.52C218.768 108.26 218.98 107.988 218.951 107.707C218.93 107.43 218.758 107.152 218.435 106.875C218.105 106.602 217.65 106.297 217.069 105.962C216.467 105.614 215.925 105.343 215.445 105.149C214.965 104.954 214.484 104.851 214.004 104.838C213.516 104.83 213.047 104.956 212.595 105.217C212.143 105.478 211.928 105.747 211.95 106.024C211.964 106.306 212.14 106.585 212.477 106.862C212.814 107.14 213.283 107.452 213.886 107.8ZM210.308 109.865C211.549 110.582 212.309 111.26 212.588 111.902C212.868 112.552 212.495 113.173 211.47 113.765C210.444 114.357 209.373 114.57 208.254 114.404C207.136 114.247 205.956 113.81 204.716 113.094C203.461 112.37 202.69 111.681 202.403 111.027C202.117 110.381 202.486 109.762 203.511 109.17C204.537 108.578 205.612 108.363 206.738 108.524C207.863 108.694 209.054 109.141 210.308 109.865ZM205.92 112.399C206.501 112.734 207.032 112.995 207.512 113.181C207.985 113.372 208.462 113.473 208.942 113.485C209.43 113.502 209.9 113.38 210.351 113.119C210.803 112.858 211.014 112.587 210.986 112.306C210.964 112.028 210.792 111.751 210.47 111.474C210.14 111.2 209.684 110.896 209.104 110.561C208.501 110.213 207.96 109.942 207.48 109.747C206.999 109.553 206.519 109.449 206.039 109.437C205.551 109.429 205.081 109.555 204.63 109.816C204.178 110.077 203.963 110.346 203.984 110.623C203.999 110.904 204.174 111.184 204.511 111.461C204.848 111.739 205.318 112.051 205.92 112.399ZM202.343 114.464C203.583 115.18 204.343 115.859 204.623 116.501C204.903 117.151 204.53 117.772 203.504 118.364C202.479 118.956 201.407 119.169 200.289 119.003C199.17 118.846 197.991 118.409 196.75 117.693C195.496 116.969 194.725 116.279 194.438 115.625C194.151 114.98 194.521 114.361 195.546 113.769C196.571 113.177 197.647 112.962 198.772 113.123C199.898 113.293 201.088 113.74 202.343 114.464ZM197.955 116.998C198.536 117.333 199.066 117.594 199.547 117.78C200.02 117.97 200.497 118.072 200.977 118.084C201.465 118.101 201.934 117.979 202.386 117.718C202.838 117.457 203.049 117.186 203.021 116.904C202.999 116.627 202.827 116.35 202.504 116.072C202.174 115.799 201.719 115.495 201.138 115.16C200.536 114.812 199.995 114.541 199.514 114.346C199.034 114.152 198.554 114.048 198.073 114.036C197.586 114.028 197.116 114.154 196.664 114.415C196.213 114.675 195.998 114.944 196.019 115.222C196.033 115.503 196.209 115.783 196.546 116.06C196.883 116.337 197.353 116.65 197.955 116.998ZM194.378 119.063C195.618 119.779 196.378 120.458 196.658 121.1C196.937 121.75 196.564 122.37 195.539 122.962C194.514 123.554 193.442 123.768 192.324 123.602C191.205 123.445 190.026 123.008 188.785 122.292C187.53 121.567 186.76 120.878 186.473 120.224C186.186 119.578 186.555 118.96 187.581 118.368C188.606 117.776 189.681 117.56 190.807 117.722C191.933 117.892 193.123 118.339 194.378 119.063ZM189.99 121.596C190.57 121.932 191.101 122.192 191.581 122.379C192.055 122.569 192.531 122.671 193.012 122.683C193.499 122.7 193.969 122.577 194.421 122.317C194.872 122.056 195.084 121.785 195.055 121.503C195.034 121.226 194.862 120.949 194.539 120.671C194.209 120.398 193.754 120.094 193.173 119.758C192.571 119.411 192.03 119.14 191.549 118.945C191.069 118.75 190.588 118.647 190.108 118.635C189.62 118.626 189.151 118.753 188.699 119.013C188.247 119.274 188.032 119.543 188.054 119.821C188.068 120.102 188.244 120.381 188.581 120.659C188.918 120.936 189.387 121.249 189.99 121.596ZM182.543 125.896C183.784 126.612 184.544 127.291 184.823 127.932C185.103 128.582 184.73 129.203 183.705 129.795C182.679 130.387 181.607 130.6 180.489 130.435C179.37 130.277 178.191 129.841 176.951 129.124C175.696 128.4 174.925 127.711 174.638 127.057C174.352 126.411 174.721 125.792 175.746 125.2C176.771 124.608 177.847 124.393 178.973 124.554C180.098 124.724 181.288 125.171 182.543 125.896ZM178.155 128.429C178.736 128.764 179.267 129.025 179.747 129.211C180.22 129.402 180.697 129.503 181.177 129.516C181.665 129.532 182.134 129.41 182.586 129.149C183.038 128.889 183.249 128.617 183.221 128.336C183.199 128.059 183.027 127.781 182.704 127.504C182.375 127.231 181.919 126.926 181.339 126.591C180.736 126.243 180.195 125.972 179.715 125.778C179.234 125.583 178.754 125.48 178.273 125.467C177.786 125.459 177.316 125.585 176.865 125.846C176.413 126.107 176.198 126.376 176.219 126.653C176.234 126.935 176.409 127.214 176.746 127.491C177.083 127.769 177.553 128.081 178.155 128.429ZM174.578 130.494C175.818 131.211 176.578 131.889 176.858 132.531C177.138 133.181 176.765 133.802 175.739 134.394C174.714 134.986 173.642 135.199 172.524 135.033C171.405 134.876 170.226 134.439 168.985 133.723C167.731 132.999 166.96 132.31 166.673 131.656C166.386 131.01 166.756 130.391 167.781 129.799C168.806 129.207 169.882 128.992 171.007 129.153C172.133 129.323 173.323 129.77 174.578 130.494ZM170.19 133.028C170.771 133.363 171.301 133.624 171.782 133.81C172.255 134.001 172.732 134.102 173.212 134.114C173.7 134.131 174.169 134.009 174.621 133.748C175.073 133.487 175.284 133.216 175.255 132.935C175.234 132.657 175.062 132.38 174.739 132.103C174.409 131.829 173.954 131.525 173.373 131.19C172.771 130.842 172.23 130.571 171.749 130.376C171.269 130.182 170.789 130.078 170.308 130.066C169.821 130.058 169.351 130.184 168.899 130.445C168.448 130.706 168.233 130.975 168.254 131.252C168.268 131.533 168.444 131.813 168.781 132.09C169.118 132.368 169.588 132.68 170.19 133.028ZM166.613 135.093C167.853 135.809 168.613 136.488 168.893 137.13C169.172 137.78 168.799 138.401 167.774 138.993C166.749 139.585 165.677 139.798 164.558 139.632C163.44 139.475 162.26 139.038 161.02 138.322C159.765 137.598 158.995 136.908 158.708 136.254C158.421 135.609 158.79 134.99 159.816 134.398C160.841 133.806 161.916 133.591 163.042 133.752C164.168 133.922 165.358 134.369 166.613 135.093ZM162.225 137.627C162.805 137.962 163.336 138.223 163.816 138.409C164.29 138.599 164.766 138.701 165.247 138.713C165.734 138.73 166.204 138.608 166.656 138.347C167.107 138.086 167.319 137.815 167.29 137.533C167.269 137.256 167.097 136.979 166.774 136.701C166.444 136.428 165.989 136.124 165.408 135.789C164.806 135.441 164.264 135.17 163.784 134.975C163.304 134.781 162.823 134.677 162.343 134.665C161.855 134.656 161.386 134.783 160.934 135.044C160.482 135.304 160.267 135.573 160.289 135.851C160.303 136.132 160.479 136.412 160.816 136.689C161.153 136.966 161.622 137.279 162.225 137.627ZM158.647 139.692C159.888 140.408 160.648 141.087 160.927 141.729C161.207 142.379 160.834 142.999 159.809 143.591C158.784 144.183 157.712 144.397 156.593 144.231C155.475 144.074 154.295 143.637 153.055 142.921C151.8 142.196 151.029 141.507 150.742 140.853C150.456 140.207 150.825 139.588 151.85 138.997C152.876 138.405 153.951 138.189 155.077 138.351C156.202 138.52 157.393 138.968 158.647 139.692ZM154.259 142.225C154.84 142.561 155.371 142.821 155.851 143.008C156.324 143.198 156.801 143.3 157.281 143.312C157.769 143.329 158.239 143.206 158.69 142.946C159.142 142.685 159.354 142.414 159.325 142.132C159.303 141.855 159.131 141.578 158.809 141.3C158.479 141.027 158.023 140.723 157.443 140.387C156.84 140.04 156.299 139.769 155.819 139.574C155.338 139.379 154.858 139.276 154.378 139.264C153.89 139.255 153.42 139.381 152.969 139.642C152.517 139.903 152.302 140.172 152.323 140.449C152.338 140.731 152.513 141.01 152.85 141.288C153.187 141.565 153.657 141.878 154.259 142.225Z" fill="white"/>
</g>
<g filter="url(#filter8_d_118120_24)">
<path d="M84.2595 180.987L83.5927 181.372L81.4776 180.151L80.0078 180.999L81.6569 181.952L80.9901 182.337L79.341 181.384L77.1613 182.643L76.344 182.171L81.327 179.294L84.2595 180.987ZM85.8917 182.691L84.4291 183.536L86.1499 184.529L85.4831 184.914L83.7623 183.921L82.2351 184.802L84.171 185.92L83.5042 186.305L80.7509 184.715L85.7412 181.834L88.4944 183.424L87.8276 183.809L85.8917 182.691ZM86.7049 187.391L88.3898 188.364L87.7302 188.745L85.2279 187.3L90.211 184.423L91.0283 184.895L86.7049 187.391ZM94.9312 187.148L89.9481 190.025L89.1307 189.553L94.1138 186.676L94.9312 187.148ZM98.7217 191.051C98.4684 191.197 98.1696 191.3 97.8255 191.361C97.4813 191.422 97.1061 191.418 96.6998 191.349C96.2983 191.277 95.892 191.122 95.4809 190.885L94.5775 190.363L92.5556 191.531L91.7382 191.059L96.7213 188.182L98.4421 189.175C98.8245 189.396 99.0802 189.621 99.2092 189.85C99.3479 190.079 99.3694 190.296 99.2738 190.5C99.183 190.707 98.9989 190.89 98.7217 191.051ZM96.1477 190.5C96.4584 190.679 96.7595 190.773 97.0511 190.781C97.3475 190.787 97.6247 190.715 97.8828 190.566C98.4277 190.252 98.3919 189.916 97.7753 189.56L96.8719 189.039L95.2443 189.978L96.1477 190.5ZM101.86 191.91L100.397 192.755L102.118 193.748L101.451 194.133L99.7307 193.14L98.2035 194.022L100.139 195.139L99.4726 195.524L96.7193 193.935L101.71 191.054L104.463 192.643L103.796 193.028L101.86 191.91ZM110.931 198.042C111.051 197.824 111.058 197.613 110.953 197.408C110.852 197.201 110.652 197.011 110.351 196.837C110.021 196.647 109.653 196.52 109.246 196.456C108.84 196.393 108.427 196.397 108.006 196.469C107.59 196.543 107.203 196.684 106.844 196.891C106.486 197.098 106.24 197.323 106.106 197.566C105.982 197.809 105.975 198.047 106.084 198.282C106.194 198.516 106.414 198.729 106.744 198.919C107.189 199.176 107.674 199.313 108.2 199.329C108.725 199.346 109.232 199.249 109.72 199.039L107.848 197.959L108.501 197.582L111.247 199.168L110.609 199.536C110.169 199.729 109.674 199.855 109.125 199.913C108.58 199.974 108.03 199.957 107.475 199.863C106.931 199.769 106.441 199.597 106.006 199.346C105.537 199.075 105.217 198.766 105.045 198.419C104.878 198.068 104.873 197.715 105.031 197.359C105.193 197.006 105.518 196.688 106.006 196.407C106.493 196.125 107.043 195.938 107.655 195.844C108.271 195.753 108.881 195.757 109.483 195.856C110.095 195.955 110.633 196.139 111.096 196.407C111.627 196.713 111.966 197.061 112.114 197.45C112.272 197.839 112.205 198.225 111.914 198.609L110.931 198.042ZM110.318 201.844C110.17 201.758 110.096 201.657 110.096 201.542C110.096 201.426 110.17 201.325 110.318 201.239C110.466 201.154 110.641 201.111 110.841 201.111C111.042 201.111 111.216 201.154 111.365 201.239C111.508 201.322 111.58 201.421 111.58 201.537C111.58 201.653 111.506 201.754 111.357 201.84C111.209 201.925 111.035 201.968 110.834 201.968C110.633 201.968 110.461 201.927 110.318 201.844Z" fill="white"/>
</g>
<g filter="url(#filter9_d_118120_24)">
<path d="M66.8671 187.415C66.19 187.806 65.7737 188.175 65.6184 188.522C65.463 188.869 65.6602 189.202 66.2099 189.519C66.7596 189.836 67.3352 189.95 67.9366 189.861C68.5421 189.773 69.1834 189.534 69.8605 189.143C70.5297 188.757 70.94 188.389 71.0914 188.039C71.2467 187.692 71.0496 187.36 70.4999 187.042C69.9502 186.725 69.3746 186.611 68.7731 186.701C68.1756 186.788 67.5403 187.026 66.8671 187.415ZM69.3228 188.833C68.9763 189.033 68.6596 189.186 68.3728 189.291C68.094 189.397 67.8151 189.45 67.5363 189.45C67.2575 189.45 66.9866 189.374 66.7237 189.222C66.4648 189.073 66.3354 188.918 66.3354 188.757C66.3354 188.596 66.425 188.434 66.6042 188.27C66.7914 188.107 67.0583 187.925 67.4049 187.725C67.7474 187.527 68.0581 187.376 68.3369 187.27C68.6198 187.166 68.8986 187.116 69.1734 187.118C69.4523 187.118 69.7211 187.193 69.98 187.342C70.2429 187.494 70.3744 187.65 70.3744 187.811C70.3784 187.97 70.2887 188.13 70.1055 188.291C69.9263 188.454 69.6654 188.635 69.3228 188.833ZM73.8712 190.355C74.0903 190.191 74.1979 190.03 74.1939 189.872C74.1979 189.713 74.0784 189.564 73.8354 189.423C73.4968 189.228 73.1085 189.155 72.6703 189.206C72.2361 189.259 71.7342 189.45 71.1646 189.779L70.9495 189.91C71.2483 189.806 71.5749 189.776 71.9294 189.82C72.2879 189.861 72.6125 189.966 72.9033 190.134C73.3216 190.375 73.5227 190.636 73.5068 190.917C73.4948 191.2 73.2638 191.471 72.8137 191.731C72.5508 191.883 72.26 191.991 71.9414 192.055C71.6267 192.117 71.2981 192.123 70.9555 192.073C70.6209 192.022 70.2963 191.906 69.9816 191.724C69.3801 191.377 69.1551 191.029 69.3064 190.679C69.4618 190.332 69.8641 189.971 70.5134 189.596C71.2622 189.163 71.9433 188.908 72.5568 188.83C73.1782 188.752 73.7617 188.87 74.3074 189.185C74.7097 189.418 74.9049 189.661 74.893 189.917C74.885 190.174 74.7177 190.42 74.3911 190.655L73.8712 190.355ZM70.4536 190.265C70.1628 190.433 70.0015 190.623 69.9696 190.834C69.9457 191.046 70.1031 191.249 70.4417 191.445C70.7205 191.606 71.0252 191.687 71.3558 191.69C71.6904 191.69 72.0071 191.603 72.3058 191.431C72.6285 191.245 72.7898 191.055 72.7898 190.862C72.7938 190.666 72.6484 190.483 72.3536 190.313C72.1863 190.217 71.9931 190.144 71.7741 190.096C71.555 190.048 71.3279 190.036 71.0929 190.061C70.8619 190.084 70.6488 190.152 70.4536 190.265ZM79.6077 190.734L71.3205 193.629L70.7947 193.325L79.076 190.427L79.6077 190.734ZM74.6727 193.901C75.804 194.03 76.7958 194.083 77.6482 194.06C78.5046 194.035 79.126 193.911 79.5124 193.688C79.7514 193.55 79.8809 193.403 79.9008 193.249C79.9287 193.095 79.8072 192.94 79.5363 192.784C79.2575 192.623 78.9567 192.553 78.6341 192.573C78.3154 192.592 77.9928 192.686 77.6662 192.856L77.1284 192.546C77.6263 192.29 78.1322 192.166 78.646 192.173C79.1639 192.178 79.6299 192.3 80.0442 192.539C80.4385 192.766 80.6456 193.008 80.6656 193.263C80.6855 193.518 80.5022 193.758 80.1159 193.981C79.7972 194.165 79.369 194.292 78.8313 194.364C78.3015 194.435 77.7398 194.463 77.1463 194.446C76.5608 194.43 76.0071 194.384 75.4853 194.308L77.6243 195.543L77.1762 195.802L74.2784 194.129L74.6727 193.901ZM79.8672 194.92C79.1901 195.311 78.7738 195.68 78.6185 196.028C78.4631 196.375 78.6603 196.707 79.21 197.025C79.7597 197.342 80.3352 197.456 80.9367 197.366C81.5422 197.279 82.1835 197.04 82.8606 196.649C83.5298 196.262 83.9401 195.894 84.0915 195.545C84.2468 195.197 84.0496 194.865 83.4999 194.548C82.9503 194.23 82.3747 194.117 81.7732 194.206C81.1757 194.294 80.5404 194.532 79.8672 194.92ZM82.3229 196.338C81.9763 196.538 81.6597 196.691 81.3729 196.797C81.0941 196.903 80.8152 196.956 80.5364 196.956C80.2576 196.956 79.9867 196.88 79.7238 196.728C79.4649 196.578 79.3354 196.423 79.3354 196.262C79.3354 196.101 79.4251 195.939 79.6043 195.776C79.7915 195.613 80.0584 195.431 80.4049 195.231C80.7475 195.033 81.0582 194.881 81.337 194.775C81.6198 194.672 81.8987 194.621 82.1735 194.624C82.4523 194.624 82.7212 194.698 82.9801 194.848C83.243 195 83.3745 195.156 83.3745 195.317C83.3785 195.476 83.2888 195.636 83.1056 195.797C82.9264 195.96 82.6655 196.14 82.3229 196.338ZM81.7329 197.978C82.8642 198.106 83.856 198.159 84.7084 198.136C85.5648 198.111 86.1862 197.987 86.5726 197.764C86.8116 197.626 86.941 197.48 86.961 197.326C86.9888 197.172 86.8674 197.016 86.5965 196.86C86.3177 196.699 86.0169 196.629 85.6943 196.649C85.3756 196.668 85.053 196.762 84.7263 196.932L84.1886 196.622C84.6865 196.367 85.1924 196.242 85.7062 196.249C86.2241 196.254 86.6901 196.376 87.1044 196.615C87.4987 196.843 87.7058 197.084 87.7257 197.339C87.7457 197.595 87.5624 197.834 87.1761 198.057C86.8574 198.241 86.4292 198.369 85.8914 198.44C85.3617 198.511 84.8 198.539 84.2065 198.523C83.621 198.507 83.0673 198.461 82.5455 198.385L84.6845 199.62L84.2364 199.878L81.3386 198.205L81.7329 197.978ZM85.6069 199.58L86.061 199.317L91.0441 198.938L91.6296 199.276L88.8274 200.894L89.4488 201.253L88.9768 201.525L88.3554 201.166L87.3875 201.725L86.8378 201.408L87.8057 200.849L85.6069 199.58ZM90.4526 199.362L86.6526 199.638L88.3136 200.597L90.4526 199.362Z" fill="white" fill-opacity="0.7" shape-rendering="crispEdges"/>
</g>
<path d="M195.964 193.273C196.217 193.127 196.627 193.127 196.88 193.273L201.715 196.065C201.968 196.211 201.968 196.447 201.715 196.593L199.436 197.909C199.183 198.055 198.773 198.055 198.52 197.909L193.684 195.118C193.431 194.972 193.431 194.735 193.684 194.589L195.964 193.273Z" fill="white"/>
<path d="M175.386 187.296C175.639 187.15 176.05 187.15 176.303 187.296L181.138 190.088C181.391 190.234 181.391 190.471 181.138 190.617L178.859 191.932C178.606 192.079 178.196 192.079 177.943 191.932L173.107 189.141C172.854 188.995 172.854 188.758 173.107 188.612L175.386 187.296Z" fill="white"/>
<path d="M180.499 184.344C180.752 184.198 181.162 184.198 181.415 184.344L186.25 187.136C186.503 187.282 186.503 187.519 186.25 187.665L183.971 188.981C183.718 189.127 183.308 189.127 183.055 188.981L178.22 186.189C177.967 186.043 177.967 185.806 178.22 185.66L180.499 184.344Z" fill="white"/>
<path d="M186.89 189.51C187.143 189.364 187.553 189.364 187.806 189.51L192.769 192.376C193.022 192.522 193.022 192.758 192.769 192.905L187.934 195.696C187.681 195.842 187.271 195.842 187.018 195.696L182.055 192.831C181.802 192.685 181.802 192.448 182.055 192.302L186.89 189.51Z" fill="white"/>
<path d="M190.853 196.226C191.106 196.08 191.516 196.08 191.769 196.226L196.605 199.018C196.858 199.164 196.858 199.4 196.605 199.547L194.326 200.862C194.073 201.008 193.663 201.008 193.41 200.862L188.574 198.071C188.321 197.925 188.321 197.688 188.574 197.542L190.853 196.226Z" fill="white"/>
<path d="M189.584 186.847C190.114 187.153 190.114 187.648 189.584 187.954V187.954C189.408 188.056 189.408 188.221 189.584 188.323L190.788 189.018C191.041 189.164 191.451 189.164 191.704 189.018L193.483 187.991C193.737 187.844 194.082 187.762 194.441 187.762V187.762C194.648 187.762 194.752 187.617 194.606 187.532L185.249 182.13C184.996 181.984 184.586 181.984 184.333 182.13L183.332 182.708C183.079 182.854 183.079 183.091 183.332 183.237L189.584 186.847Z" fill="white"/>
<path d="M195.271 189.327C195.099 189.327 194.934 189.366 194.813 189.436L193.621 190.125C193.368 190.271 193.368 190.507 193.621 190.654L194.825 191.348C195.001 191.45 195.287 191.45 195.464 191.348V191.348C195.993 191.043 196.851 191.043 197.381 191.348L203.633 194.958C203.886 195.104 204.296 195.104 204.549 194.958L205.55 194.38C205.803 194.234 205.803 193.997 205.55 193.851L197.904 189.436C197.782 189.366 197.617 189.327 197.446 189.327L195.271 189.327Z" fill="white"/>
<path d="M185.24 198.359C184.711 198.054 184.711 197.558 185.24 197.253V197.253C185.416 197.151 185.416 196.986 185.24 196.884L184.036 196.189C183.783 196.043 183.373 196.043 183.12 196.189L181.342 197.216C181.087 197.362 180.743 197.445 180.383 197.445V197.445C180.176 197.445 180.072 197.59 180.219 197.674L189.575 203.076C189.828 203.222 190.238 203.222 190.491 203.076L191.492 202.498C191.745 202.352 191.745 202.115 191.492 201.969L185.24 198.359Z" fill="white"/>
<path d="M179.552 195.879C179.724 195.879 179.888 195.839 180.01 195.769L181.202 195.081C181.455 194.935 181.455 194.698 181.202 194.552L179.998 193.857C179.822 193.755 179.536 193.755 179.359 193.857V193.857C178.83 194.163 177.971 194.163 177.442 193.857L171.19 190.248C170.937 190.102 170.527 190.102 170.274 190.248L169.273 190.826C169.02 190.972 169.02 191.209 169.273 191.355L176.919 195.769C177.041 195.839 177.205 195.879 177.377 195.879L179.552 195.879Z" fill="white"/>
<rect x="-1.57639e-08" y="0.264474" width="24.3316" height="18.5132" rx="0.793421" transform="matrix(0.866025 0.5 -0.866025 0.5 185.021 181.705)" stroke="white" stroke-width="0.528947"/>
<g style="mix-blend-mode:overlay">
<path d="M173.588 201.779C172.39 201.62 169.927 200.943 169.655 199.513M171.963 204.345C170.105 204.07 166.152 202.906 165.204 200.45M170.744 206.746C168.27 206.355 162.9 204.709 161.22 201.258M169.012 209.09C165.997 208.679 159.404 206.738 157.152 202.257" stroke="white" stroke-width="1.37985" stroke-linecap="round" stroke-linejoin="round"/>
</g>
<path fill-rule="evenodd" clip-rule="evenodd" d="M324.536 201.186L374.688 172.23C373.703 169.951 372.424 167.708 370.854 165.52C367.332 160.61 362.436 156.102 356.404 152.163C351.713 149.099 346.335 146.38 340.383 144.083C326.778 138.835 310.783 136.034 294.42 136.034C278.057 136.034 262.062 138.835 248.457 144.083C234.852 149.332 224.248 156.792 217.986 165.52C212.11 173.71 210.305 182.672 212.743 191.402L246.997 211.178L265.17 200.686C259.385 197.346 255.445 193.091 253.849 188.458C252.253 183.825 253.072 179.023 256.203 174.659C259.334 170.295 264.636 166.565 271.438 163.941C278.241 161.317 286.239 159.916 294.42 159.916C302.601 159.916 310.599 161.317 317.402 163.941C319.665 164.814 321.763 165.81 323.67 166.911C327.135 168.911 329.969 171.259 332.025 173.848C332.237 174.116 332.441 174.386 332.637 174.659C334.594 177.387 335.648 180.285 335.773 183.207C335.781 183.404 335.786 183.601 335.786 183.799C335.786 185.355 335.522 186.916 334.991 188.458C334.492 189.906 333.764 191.316 332.823 192.674C332.762 192.762 332.7 192.85 332.637 192.938C330.568 195.822 327.53 198.458 323.67 200.686L324.536 201.186ZM276.138 194.353C266.041 188.524 266.041 179.073 276.138 173.244C286.234 167.415 302.604 167.415 312.7 173.244C322.797 179.073 322.797 188.524 312.7 194.353C307.741 197.217 301.267 198.673 294.768 198.724C294.651 198.725 294.535 198.725 294.419 198.725C294.302 198.725 294.186 198.725 294.07 198.724C287.57 198.673 281.097 197.217 276.138 194.353Z" fill="url(#paint12_linear_118120_24)"/>
</g>
<path d="M405.385 438.922C386.609 437.66 372.41 421.409 373.672 402.791C375.092 384.016 391.185 369.816 409.96 371.078C428.578 372.498 442.778 388.591 441.516 407.367C440.253 425.984 424.003 440.184 405.385 438.922Z" fill="url(#paint13_radial_118120_24)"/>
<path d="M78.5543 472.963C69.7188 472.369 63.0365 464.722 63.6305 455.961C64.2987 447.125 71.872 440.443 80.7075 441.037C89.4687 441.705 96.151 449.278 95.557 458.114C94.963 466.875 87.3155 473.557 78.5543 472.963Z" fill="url(#paint14_radial_118120_24)"/>
<defs>
<filter id="filter0_b_118120_24" x="46.148" y="218.858" width="397.812" height="237.284" filterUnits="userSpaceOnUse" color-interpolation-filters="sRGB">
<feFlood flood-opacity="0" result="BackgroundImageFix"/>
<feGaussianBlur in="BackgroundImageFix" stdDeviation="4.5"/>
<feComposite in2="SourceAlpha" operator="in" result="effect1_backgroundBlur_118120_24"/>
<feBlend mode="normal" in="SourceGraphic" in2="effect1_backgroundBlur_118120_24" result="shape"/>
</filter>
<filter id="filter1_d_118120_24" x="0.00195312" y="83.0415" width="526.318" height="363.041" filterUnits="userSpaceOnUse" color-interpolation-filters="sRGB">
<feFlood flood-opacity="0" result="BackgroundImageFix"/>
<feColorMatrix in="SourceAlpha" type="matrix" values="0 0 0 0 0 0 0 0 0 0 0 0 0 0 0 0 0 0 127 0" result="hardAlpha"/>
<feOffset dy="9"/>
<feGaussianBlur stdDeviation="35"/>
<feComposite in2="hardAlpha" operator="out"/>
<feColorMatrix type="matrix" values="0 0 0 0 0 0 0 0 0 0 0 0 0 0 0 0 0 0 0.25 0"/>
<feBlend mode="normal" in2="BackgroundImageFix" result="effect1_dropShadow_118120_24"/>
<feBlend mode="normal" in="SourceGraphic" in2="effect1_dropShadow_118120_24" result="shape"/>
</filter>
<filter id="filter2_d_118120_24" x="100.702" y="271.257" width="41.6381" height="24.8851" filterUnits="userSpaceOnUse" color-interpolation-filters="sRGB">
<feFlood flood-opacity="0" result="BackgroundImageFix"/>
<feColorMatrix in="SourceAlpha" type="matrix" values="0 0 0 0 0 0 0 0 0 0 0 0 0 0 0 0 0 0 127 0" result="hardAlpha"/>
<feOffset dy="1"/>
<feGaussianBlur stdDeviation="0.5"/>
<feComposite in2="hardAlpha" operator="out"/>
<feColorMatrix type="matrix" values="0 0 0 0 0 0 0 0 0 0 0 0 0 0 0 0 0 0 0.15 0"/>
<feBlend mode="normal" in2="BackgroundImageFix" result="effect1_dropShadow_118120_24"/>
<feBlend mode="normal" in="SourceGraphic" in2="effect1_dropShadow_118120_24" result="shape"/>
</filter>
<filter id="filter3_d_118120_24" x="88.1205" y="277.397" width="31.9249" height="19.2771" filterUnits="userSpaceOnUse" color-interpolation-filters="sRGB">
<feFlood flood-opacity="0" result="BackgroundImageFix"/>
<feColorMatrix in="SourceAlpha" type="matrix" values="0 0 0 0 0 0 0 0 0 0 0 0 0 0 0 0 0 0 127 0" result="hardAlpha"/>
<feOffset dy="1"/>
<feGaussianBlur stdDeviation="0.5"/>
<feComposite in2="hardAlpha" operator="out"/>
<feColorMatrix type="matrix" values="0 0 0 0 0 0 0 0 0 0 0 0 0 0 0 0 0 0 0.15 0"/>
<feBlend mode="normal" in2="BackgroundImageFix" result="effect1_dropShadow_118120_24"/>
<feBlend mode="normal" in="SourceGraphic" in2="effect1_dropShadow_118120_24" result="shape"/>
</filter>
<filter id="filter4_d_118120_24" x="8.59375" y="34.0415" width="466.318" height="303.041" filterUnits="userSpaceOnUse" color-interpolation-filters="sRGB">
<feFlood flood-opacity="0" result="BackgroundImageFix"/>
<feColorMatrix in="SourceAlpha" type="matrix" values="0 0 0 0 0 0 0 0 0 0 0 0 0 0 0 0 0 0 127 0" result="hardAlpha"/>
<feOffset dx="4" dy="22"/>
<feGaussianBlur stdDeviation="20"/>
<feComposite in2="hardAlpha" operator="out"/>
<feColorMatrix type="matrix" values="0 0 0 0 0 0 0 0 0 0 0 0 0 0 0 0 0 0 0.25 0"/>
<feBlend mode="normal" in2="BackgroundImageFix" result="effect1_dropShadow_118120_24"/>
<feBlend mode="normal" in="SourceGraphic" in2="effect1_dropShadow_118120_24" result="shape"/>
</filter>
<filter id="filter5_b_118120_24" x="37.5938" y="45.0415" width="400.318" height="237.041" filterUnits="userSpaceOnUse" color-interpolation-filters="sRGB">
<feFlood flood-opacity="0" result="BackgroundImageFix"/>
<feGaussianBlur in="BackgroundImageFix" stdDeviation="3.5"/>
<feComposite in2="SourceAlpha" operator="in" result="effect1_backgroundBlur_118120_24"/>
<feBlend mode="normal" in="SourceGraphic" in2="effect1_backgroundBlur_118120_24" result="shape"/>
</filter>
<filter id="filter6_b_118120_24" x="37.5938" y="131.38" width="250.776" height="150.703" filterUnits="userSpaceOnUse" color-interpolation-filters="sRGB">
<feFlood flood-opacity="0" result="BackgroundImageFix"/>
<feGaussianBlur in="BackgroundImageFix" stdDeviation="3.5"/>
<feComposite in2="SourceAlpha" operator="in" result="effect1_backgroundBlur_118120_24"/>
<feBlend mode="normal" in="SourceGraphic" in2="effect1_backgroundBlur_118120_24" result="shape"/>
</filter>
<filter id="filter7_d_118120_24" x="148.525" y="61.6989" width="145.696" height="84.5648" filterUnits="userSpaceOnUse" color-interpolation-filters="sRGB">
<feFlood flood-opacity="0" result="BackgroundImageFix"/>
<feColorMatrix in="SourceAlpha" type="matrix" values="0 0 0 0 0 0 0 0 0 0 0 0 0 0 0 0 0 0 127 0" result="hardAlpha"/>
<feOffset dy="0.528947"/>
<feGaussianBlur stdDeviation="0.264474"/>
<feComposite in2="hardAlpha" operator="out"/>
<feColorMatrix type="matrix" values="0 0 0 0 0 0 0 0 0 0 0 0 0 0 0 0 0 0 0.2 0"/>
<feBlend mode="normal" in2="BackgroundImageFix" result="effect1_dropShadow_118120_24"/>
<feBlend mode="normal" in="SourceGraphic" in2="effect1_dropShadow_118120_24" result="shape"/>
</filter>
<filter id="filter8_d_118120_24" x="75.2938" y="179.257" width="41.6381" height="24.8851" filterUnits="userSpaceOnUse" color-interpolation-filters="sRGB">
<feFlood flood-opacity="0" result="BackgroundImageFix"/>
<feColorMatrix in="SourceAlpha" type="matrix" values="0 0 0 0 0 0 0 0 0 0 0 0 0 0 0 0 0 0 127 0" result="hardAlpha"/>
<feOffset dy="1"/>
<feGaussianBlur stdDeviation="0.5"/>
<feComposite in2="hardAlpha" operator="out"/>
<feColorMatrix type="matrix" values="0 0 0 0 0 0 0 0 0 0 0 0 0 0 0 0 0 0 0.15 0"/>
<feBlend mode="normal" in2="BackgroundImageFix" result="effect1_dropShadow_118120_24"/>
<feBlend mode="normal" in="SourceGraphic" in2="effect1_dropShadow_118120_24" result="shape"/>
</filter>
<filter id="filter9_d_118120_24" x="62.7123" y="185.397" width="31.9249" height="19.2771" filterUnits="userSpaceOnUse" color-interpolation-filters="sRGB">
<feFlood flood-opacity="0" result="BackgroundImageFix"/>
<feColorMatrix in="SourceAlpha" type="matrix" values="0 0 0 0 0 0 0 0 0 0 0 0 0 0 0 0 0 0 127 0" result="hardAlpha"/>
<feOffset dy="1"/>
<feGaussianBlur stdDeviation="0.5"/>
<feComposite in2="hardAlpha" operator="out"/>
<feColorMatrix type="matrix" values="0 0 0 0 0 0 0 0 0 0 0 0 0 0 0 0 0 0 0.15 0"/>
<feBlend mode="normal" in2="BackgroundImageFix" result="effect1_dropShadow_118120_24"/>
<feBlend mode="normal" in="SourceGraphic" in2="effect1_dropShadow_118120_24" result="shape"/>
</filter>
<radialGradient id="paint0_radial_118120_24" cx="0" cy="0" r="1" gradientUnits="userSpaceOnUse" gradientTransform="translate(72.462 36.0489) rotate(93.8705) scale(64.9684)">
<stop offset="0.00887753" stop-color="#DEF9FA"/>
<stop offset="0.1723" stop-color="#BEF3F5"/>
<stop offset="0.4204" stop-color="#9DEDF0"/>
<stop offset="0.5512" stop-color="#7DE7EB"/>
<stop offset="0.7154" stop-color="#5CE1E6"/>
<stop offset="1" stop-color="#33BBCF"/>
</radialGradient>
<linearGradient id="paint1_linear_118120_24" x1="-55.9589" y1="-198.041" x2="78.9749" y2="295.841" gradientUnits="userSpaceOnUse">
<stop stop-color="white" stop-opacity="0.7"/>
<stop offset="0.667914" stop-color="#F9F9F9" stop-opacity="0.175336"/>
<stop offset="1" stop-color="#F9F9F9" stop-opacity="0.1"/>
<stop offset="1" stop-color="white" stop-opacity="0.2"/>
</linearGradient>
<linearGradient id="paint2_linear_118120_24" x1="-3.5" y1="-9.24422e-07" x2="175" y2="284" gradientUnits="userSpaceOnUse">
<stop stop-color="white"/>
<stop offset="1" stop-color="white" stop-opacity="0.1"/>
</linearGradient>
<linearGradient id="paint3_linear_118120_24" x1="0" y1="0" x2="178" y2="284.248" gradientUnits="userSpaceOnUse">
<stop stop-color="white" stop-opacity="0.4"/>
<stop offset="1" stop-color="white" stop-opacity="0.1"/>
</linearGradient>
<linearGradient id="paint4_linear_118120_24" x1="-1.21225e-06" y1="9.5" x2="167.5" y2="284" gradientUnits="userSpaceOnUse">
<stop stop-color="white"/>
<stop offset="1" stop-color="white" stop-opacity="0.1"/>
</linearGradient>
<linearGradient id="paint5_linear_118120_24" x1="9.89486" y1="0" x2="9.89486" y2="19.7897" gradientUnits="userSpaceOnUse">
<stop stop-color="white"/>
<stop offset="0.479167" stop-opacity="0.5"/>
<stop offset="0.9375" stop-color="white"/>
</linearGradient>
<linearGradient id="paint6_linear_118120_24" x1="9.89486" y1="0" x2="9.89486" y2="19.7897" gradientUnits="userSpaceOnUse">
<stop stop-color="white"/>
<stop offset="0.479167" stop-opacity="0.5"/>
<stop offset="0.9375" stop-color="white"/>
</linearGradient>
<linearGradient id="paint7_linear_118120_24" x1="0" y1="0" x2="178" y2="284.248" gradientUnits="userSpaceOnUse">
<stop stop-color="white" stop-opacity="0.4"/>
<stop offset="1" stop-color="white" stop-opacity="0.1"/>
</linearGradient>
<linearGradient id="paint8_linear_118120_24" x1="-1.21225e-06" y1="9.5" x2="167.5" y2="284" gradientUnits="userSpaceOnUse">
<stop stop-color="white"/>
<stop offset="1" stop-color="white" stop-opacity="0.1"/>
</linearGradient>
<linearGradient id="paint9_linear_118120_24" x1="106.092" y1="-41.5" x2="272.66" y2="299.832" gradientUnits="userSpaceOnUse">
<stop stop-color="#5AE5EA"/>
<stop offset="0.29487" stop-color="#5AE5EA" stop-opacity="0"/>
<stop offset="1" stop-color="#5AE5EA"/>
</linearGradient>
<linearGradient id="paint10_linear_118120_24" x1="9.89486" y1="0" x2="9.89486" y2="19.7897" gradientUnits="userSpaceOnUse">
<stop stop-color="white"/>
<stop offset="0.479167" stop-opacity="0.5"/>
<stop offset="0.9375" stop-color="white"/>
</linearGradient>
<linearGradient id="paint11_linear_118120_24" x1="9.89486" y1="0" x2="9.89486" y2="19.7897" gradientUnits="userSpaceOnUse">
<stop stop-color="white"/>
<stop offset="0.479167" stop-opacity="0.5"/>
<stop offset="0.9375" stop-color="white"/>
</linearGradient>
<linearGradient id="paint12_linear_118120_24" x1="316.191" y1="98.9335" x2="314.303" y2="206.043" gradientUnits="userSpaceOnUse">
<stop stop-color="white"/>
<stop offset="1" stop-color="white" stop-opacity="0"/>
</linearGradient>
<radialGradient id="paint13_radial_118120_24" cx="0" cy="0" r="1" gradientUnits="userSpaceOnUse" gradientTransform="translate(421.98 395.271) rotate(93.8705) scale(43.7411)">
<stop offset="0.00887753" stop-color="#DEF9FA"/>
<stop offset="0.1723" stop-color="#BEF3F5"/>
<stop offset="0.4204" stop-color="#9DEDF0"/>
<stop offset="0.5512" stop-color="#7DE7EB"/>
<stop offset="0.7154" stop-color="#5CE1E6"/>
<stop offset="1" stop-color="#33BBCF"/>
</radialGradient>
<radialGradient id="paint14_radial_118120_24" cx="0" cy="0" r="1" gradientUnits="userSpaceOnUse" gradientTransform="translate(86.3639 452.421) rotate(93.8705) scale(20.5841)">
<stop offset="0.00887753" stop-color="#DEF9FA"/>
<stop offset="0.1723" stop-color="#BEF3F5"/>
<stop offset="0.4204" stop-color="#9DEDF0"/>
<stop offset="0.5512" stop-color="#7DE7EB"/>
<stop offset="0.7154" stop-color="#5CE1E6"/>
<stop offset="1" stop-color="#33BBCF"/>
</radialGradient>
</defs>
</svg>
